<svg width="1442" height="729" viewBox="0 0 1442 729" fill="none" style="opacity:0.1;" xmlns="http://www.w3.org/2000/svg">
<line x1="16.0025" y1="79.5" x2="1420" y2="86.5" stroke="white" />
<line x1="16.0025" y1="136.5" x2="1420" y2="143.5" stroke="white"  />
<line x1="18.0025" y1="193.5" x2="1422" y2="200.5" stroke="white"  />
<line x1="20.0025" y1="250.5" x2="1424" y2="257.5" stroke="white"  />
<line x1="22.0025" y1="307.5" x2="1426" y2="314.5" stroke="white"  />
<line x1="24.0025" y1="364.5" x2="1428" y2="371.5" stroke="white"  />
<line x1="26.0025" y1="421.5" x2="1430" y2="428.5" stroke="white"  />
<line x1="28.0025" y1="478.5" x2="1432" y2="485.5" stroke="white"  />
<line x1="30.0025" y1="535.5" x2="1434" y2="542.5" stroke="white"  />
<line x1="32.0025" y1="592.5" x2="1436" y2="599.5" stroke="white"  />
<line x1="34.0025" y1="649.5" x2="1438" y2="656.5" stroke="white"  />
<line x1="16.0025" y1="79.5" x2="1420" y2="86.5" stroke="white"  />
<line x1="18.0025" y1="22.5" x2="1422" y2="29.5" stroke="white"  />
<line x1="168.5" y1="4.00139" x2="166.5" y2="726.001" stroke="white"  />
<line x1="16.0025" y1="136.5" x2="1420" y2="143.5" stroke="white"  />
<line x1="18.0025" y1="193.5" x2="1422" y2="200.5" stroke="white"  />
<line x1="20.0025" y1="250.5" x2="1424" y2="257.5" stroke="white"  />
<line x1="22.0025" y1="307.5" x2="1426" y2="314.5" stroke="white"  />
<line x1="24.0025" y1="364.5" x2="1428" y2="371.5" stroke="white"  />
<line x1="26.0025" y1="421.5" x2="1430" y2="428.5" stroke="white"  />
<line x1="28.0025" y1="478.5" x2="1432" y2="485.5" stroke="white"  />
<line x1="30.0025" y1="535.5" x2="1434" y2="542.5" stroke="white"  />
<line x1="32.0025" y1="592.5" x2="1436" y2="599.5" stroke="white"  />
<line x1="34.0025" y1="649.5" x2="1438" y2="656.5" stroke="white"  />
<line x1="38.0025" y1="706.5" x2="1442" y2="713.5" stroke="white"  />
<line x1="50.5" y1="7.00139" x2="48.5" y2="729.001" stroke="white"  />
<line x1="109.5" y1="7.00139" x2="107.5" y2="729.001" stroke="white"  />
<line x1="168.5" y1="4.00139" x2="166.5" y2="726.001" stroke="white"  />
<line x1="227.5" y1="4.00139" x2="225.5" y2="726.001" stroke="white"  />
<line x1="286.5" y1="0.00138504" x2="284.5" y2="722.001" stroke="white"  />
<line x1="286.5" y1="0.00138504" x2="284.5" y2="722.001" stroke="white"  />
<line x1="345.5" y1="0.00138504" x2="343.5" y2="722.001" stroke="white"  />
<line x1="404.5" y1="0.00138504" x2="402.5" y2="722.001" stroke="white"  />
<line x1="463.5" y1="0.00138504" x2="461.5" y2="722.001" stroke="white"  />
<line x1="522.5" y1="0.00138504" x2="520.5" y2="722.001" stroke="white"  />
<line x1="581.5" y1="0.00138504" x2="579.5" y2="722.001" stroke="white"  />
<line x1="640.5" y1="0.00138504" x2="638.5" y2="722.001" stroke="white"  />
<line x1="699.5" y1="0.00138504" x2="697.5" y2="722.001" stroke="white"  />
<line x1="758.5" y1="0.00138504" x2="756.5" y2="722.001" stroke="white"  />
<line x1="817.5" y1="0.00138504" x2="815.5" y2="722.001" stroke="white"  />
<line x1="876.5" y1="0.00138504" x2="874.5" y2="722.001" stroke="white"  />
<line x1="935.5" y1="0.00138504" x2="933.5" y2="722.001" stroke="white"  />
<line x1="994.5" y1="0.00138504" x2="992.5" y2="722.001" stroke="white"  />
<line x1="1053.5" y1="0.00138504" x2="1051.5" y2="722.001" stroke="white"  />
<line x1="1112.5" y1="0.00138504" x2="1110.5" y2="722.001" stroke="white"  />
<line x1="1171.5" y1="0.00138504" x2="1169.5" y2="722.001" stroke="white"  />
<line x1="1230.5" y1="0.00138504" x2="1228.5" y2="722.001" stroke="white"  />
<line x1="1289.5" y1="0.00138504" x2="1287.5" y2="722.001" stroke="white"  />
<line x1="1348.5" y1="0.00138504" x2="1346.5" y2="722.001" stroke="white"  />
<line x1="1407.5" y1="0.00138504" x2="1405.5" y2="722.001" stroke="white"  />
</svg>
