<svg width="800" height="800" viewBox="0 0 800 800" fill="none" xmlns="http://www.w3.org/2000/svg">
<rect x="200" y="200" width="200" height="200" transform="rotate(180 200 200)" fill="#151515"/>
<rect x="200" y="200" width="200" height="100" transform="rotate(180 200 200)" fill="#151515"/>
<path d="M100 0C44.7715 0 0 44.7715 0 100L200 100C200 44.7715 155.228 0 100 0Z" fill="#151515"/>
<rect width="200" height="200" transform="matrix(-1 0 0 1 400 0)" fill="#A91D3A"/>
<rect width="200" height="200" transform="matrix(1 0 0 -1 400 200)" fill="#C73659"/>
<rect x="600" width="200" height="200" fill="#A91D3A"/>
<path d="M600 0C600 26.2644 605.173 52.2716 615.224 76.5367C625.275 100.802 640.007 122.85 658.579 141.421C677.15 159.993 699.198 174.725 723.463 184.776C747.728 194.827 773.736 200 800 200L800 0H600Z" fill="#C73659"/>
<rect x="200" y="400" width="200" height="200" transform="rotate(180 200 400)" fill="#151515"/>
<rect width="200" height="200" transform="matrix(-1 0 0 1 400 200)" fill="#151515"/>
<path d="M200 200C200 226.264 205.173 252.272 215.224 276.537C225.275 300.802 240.007 322.85 258.579 341.421C277.15 359.993 299.198 374.725 323.463 384.776C347.728 394.827 373.736 400 400 400L400 200H200Z" fill="#A91D3A"/>
<rect width="200" height="200" transform="matrix(1 0 0 -1 400 400)" fill="#A91D3A"/>
<path d="M600 200C600 226.264 594.827 252.272 584.776 276.537C574.725 300.802 559.993 322.85 541.421 341.421C522.85 359.993 500.802 374.725 476.537 384.776C452.272 394.827 426.264 400 400 400L400 200H600Z" fill="#C73659"/>
<rect x="600" y="200" width="200" height="200" fill="#A91D3A"/>
<rect x="600" y="300" width="200" height="100" fill="#151515"/>
<path d="M700 200C755.228 200 800 244.772 800 300H600C600 244.772 644.772 200 700 200Z" fill="#151515"/>
<rect x="200" y="600" width="200" height="200" transform="rotate(180 200 600)" fill="#151515"/>
<rect x="200" y="600" width="200" height="100" transform="rotate(180 200 600)" fill="#C73659"/>
<path d="M100 400C44.7715 400 0 444.772 0 500H200C200 444.772 155.228 400 100 400Z" fill="#C73659"/>
<rect width="200" height="200" transform="matrix(-1 0 0 1 400 400)" fill="#151515"/>
<path d="M200 600C200 573.736 205.173 547.728 215.224 523.463C225.275 499.198 240.007 477.15 258.579 458.579C277.15 440.007 299.198 425.275 323.463 415.224C347.728 405.173 373.736 400 400 400L400 600H200Z" fill="#A91D3A"/>
<rect width="200" height="200" transform="matrix(1 0 0 -1 400 600)" fill="#A91D3A"/>
<rect x="600" y="400" width="200" height="200" fill="#151515"/>
<rect x="200" y="800" width="200" height="200" transform="rotate(180 200 800)" fill="#C73659"/>
<rect width="200" height="200" transform="matrix(-1 0 0 1 400 600)" fill="#A91D3A"/>
<rect width="200" height="200" transform="matrix(1 0 0 -1 400 800)" fill="#A91D3A"/>
<rect width="200" height="100" transform="matrix(1 0 0 -1 400 800)" fill="#C73659"/>
<path d="M500 600C444.772 600 400 644.772 400 700H600C600 644.772 555.228 600 500 600Z" fill="#C73659"/>
<rect x="600" y="600" width="200" height="200" fill="#C73659"/>
<rect x="600" y="600" width="200" height="100" fill="#151515"/>
<path d="M700 800C755.228 800 800 755.228 800 700H600C600 755.228 644.772 800 700 800Z" fill="#151515"/>
</svg>
