<?xml version="1.0" encoding="utf-8"?>
<!-- Generator: Adobe Illustrator 13.0.0, SVG Export Plug-In . SVG Version: 6.00 Build 14948)  -->
<!DOCTYPE svg PUBLIC "-//W3C//DTD SVG 1.1//EN" "http://www.w3.org/Graphics/SVG/1.1/DTD/svg11.dtd">
<svg version="1.1" id="Layer_1" xmlns="http://www.w3.org/2000/svg" xmlns:xlink="http://www.w3.org/1999/xlink" x="0px" y="0px"
	 width="4662px" height="4412px" viewBox="0 0 4662 4412" enable-background="new 0 0 4662 4412" xml:space="preserve">
<path fill="#FFFFFF" d="M2393,0c0,336.93,0,673.86,0,1021c3.96-7.92,7.92-15.84,12-24c6.494-12.079,6.494-12.079,8.82-16.262
	c2.24-4.036,4.461-8.081,6.672-12.133c7.854-14.336,16.102-28.36,24.648-42.289c3.045-4.963,6.01-9.963,8.922-15.004
	c5.979-10.291,12.514-20.236,18.962-30.236c1.794-2.794,3.573-5.598,5.343-8.408c9.276-14.728,18.925-29.197,28.61-43.657
	c3.579-5.345,7.144-10.699,10.704-16.056c10.524-15.829,21.289-31.474,32.318-46.955c0.523-0.735,1.047-1.47,1.586-2.228
	c7.92-11.097,16.063-21.998,24.414-32.772c0.477-0.618,0.953-1.237,1.445-1.875c8.283-10.742,16.949-21.123,26.117-31.125
	c3.42-3.765,6.577-7.669,9.688-11.688c8.105-10.466,16.903-20.338,25.793-30.141c1.741-1.933,3.447-3.889,5.145-5.859
	c11.022-12.602,22.816-24.477,34.664-36.295c2.545-2.539,5.083-5.082,7.621-7.627c1.642-1.641,3.283-3.281,4.926-4.922
	c0.746-0.748,1.492-1.496,2.261-2.267c4.075-4.057,8.236-7.95,12.599-11.698c2.58-2.228,5.06-4.555,7.555-6.879
	c4.696-4.344,9.551-8.429,14.535-12.441c2.645-2.178,5.185-4.437,7.715-6.746c4.813-4.374,9.818-8.43,14.938-12.438
	c1.096-0.864,2.19-1.729,3.285-2.594C2828.915,487.508,2910.223,437.476,3014,398c0.678-0.246,1.356-0.491,2.055-0.745
	c39.797-14.403,80.635-26.061,121.945-35.255c0.709-0.158,1.419-0.316,2.149-0.479c31.294-6.939,63.013-11.849,94.976-14.333
	c0.725-0.058,1.449-0.115,2.197-0.174c29.526-2.278,59.207-2.221,88.803-2.201c0.897,0,1.795,0,2.719,0.001
	c28.426,0.01,56.785,0.24,85.156,2.187c0.969,0.065,1.937,0.131,2.934,0.199c101.771,6.95,203.02,26.575,446.066,109.801
	c1.051,0.48,1.051,0.48,2.124,0.972c27.05,12.381,53.538,25.743,79.583,40.122c3.647,2.013,7.312,3.987,10.992,5.938
	c14.688,7.806,28.919,16.237,43.063,24.973c2.903,1.79,5.813,3.566,8.729,5.336c25.878,15.77,50.834,33.082,75.508,50.66
	c0.735,0.523,1.471,1.047,2.228,1.586c10.437,7.448,20.702,15.092,30.849,22.932c1.767,1.361,3.539,2.715,5.314,4.064
	c6.634,5.057,13.137,10.249,19.594,15.529c4.337,3.542,8.719,7.016,13.141,10.451c6.546,5.103,12.841,10.468,19.107,15.908
	c1.796,1.554,3.601,3.098,5.408,4.639c6.121,5.218,12.184,10.481,18.141,15.887c2.012,1.817,4.045,3.604,6.094,5.379
	c4.921,4.29,9.714,8.718,14.514,13.143c1.612,1.483,3.23,2.96,4.85,4.436c6.016,5.497,11.874,11.106,17.601,16.904
	c2.575,2.598,5.18,5.095,7.974,7.455c8.7,7.421,16.89,15.794,24.254,24.535c2.854,3.176,5.9,6.149,8.934,9.152
	c4.173,4.135,8.244,8.27,12.039,12.758c2.857,3.268,5.857,6.398,8.836,9.555c4.869,5.174,9.482,10.457,13.918,16.012
	c2.467,2.991,5.066,5.839,7.707,8.676c4.256,4.579,8.273,9.293,12.195,14.164c2.063,2.538,4.164,5.034,6.288,7.521
	c5.691,6.659,11.151,13.471,16.521,20.391c1.575,2.027,3.155,4.051,4.737,6.073c12.755,16.327,25.448,32.681,37.263,49.706
	c1.536,2.205,3.089,4.399,4.644,6.591c36.115,51.013,68.471,104.493,97.402,159.883c1.666,3.188,3.353,6.363,5.055,9.531
	c7.121,13.318,13.517,26.924,19.793,40.658c1.504,3.27,3.029,6.528,4.566,9.783c40.597,86.229,72.152,179.083,101.921,315.796
	c2.829,14.69,5.944,29.277,9.364,43.841c9.285,39.738,15.506,80.293,17.75,121.063c0.041,0.723,0.082,1.444,0.123,2.188
	c1.158,21.424,1.024,42.859,1.012,64.308c-0.003,5.385-0.001,10.771,0.001,16.155c0.002,9.042-0.001,18.085-0.005,27.126
	c-0.006,10.366-0.004,20.732,0.001,31.099c0.005,8.985,0.006,17.971,0.003,26.956c-0.002,5.328-0.002,10.657,0.002,15.985
	c0.016,29.857-0.082,59.704-2.324,89.495c-0.062,0.828-0.122,1.656-0.186,2.509c-5.215,69.387-17.797,137.601-33.915,205.193
	c-0.664,2.785-1.325,5.57-1.985,8.356c-22.075,92.843-53.929,183.466-94.727,273.629c-0.678,1.511-0.678,1.511-1.368,3.053
	c-7.78,17.329-16.217,34.326-24.694,51.322c-0.549,1.103-1.098,2.205-1.662,3.342c-7.444,14.941-15.176,29.687-23.275,44.283
	c-0.622,1.129-1.244,2.258-1.885,3.42c-7.99,14.461-16.502,28.589-25.128,42.674c-2.063,3.377-4.1,6.768-6.104,10.18
	c-7.436,12.646-15.494,24.832-23.693,36.989c-2.691,3.991-5.355,7.999-8.01,12.015c-6.867,10.376-13.98,20.574-21.18,30.723
	c-0.537,0.758-1.074,1.516-1.629,2.297c-8.849,12.444-18.051,24.608-27.371,36.703c-0.637,0.826-1.273,1.653-1.93,2.505
	c-6.897,8.94-13.869,17.797-21.07,26.495c-1.459,1.791-2.917,3.583-4.375,5.375c-3.795,4.641-7.654,9.221-11.539,13.786
	c-2.911,3.429-5.764,6.898-8.586,10.401c-4.125,5.07-8.496,9.869-12.938,14.66c-2.666,2.89-5.258,5.832-7.836,8.801
	c-9.432,10.797-19.211,21.295-28.977,31.789c-0.85,0.915-0.85,0.915-1.716,1.849c-2.864,3.071-5.769,6.09-8.749,9.05
	c-2.307,2.291-4.51,4.607-6.598,7.102c-2.764,3.211-5.674,6.21-8.688,9.188c-2.932,2.896-5.764,5.803-8.438,8.938
	c-2.864,3.352-5.926,6.468-9.063,9.563c-3.095,3.054-6.119,6.123-8.938,9.438c-3.016,3.539-6.257,6.797-9.563,10.063
	c-3.285,3.244-6.508,6.479-9.5,10s-6.215,6.756-9.5,10c-3.264,3.224-6.469,6.436-9.438,9.938
	c-3.162,3.723-6.592,7.131-10.063,10.563c-3.429,3.391-6.822,6.752-9.938,10.438c-3.877,4.576-8.188,8.713-12.447,12.928
	c-3.572,3.549-6.961,7.166-10.213,11.014c-3.229,3.6-6.71,6.947-10.146,10.346c-2.843,2.823-5.605,5.651-8.193,8.713
	c-3.877,4.576-8.188,8.713-12.447,12.928c-3.572,3.549-6.961,7.166-10.213,11.014c-3.228,3.599-6.709,6.946-10.145,10.344
	c-2.863,2.844-5.646,5.696-8.258,8.777c-3.664,4.324-7.715,8.24-11.742,12.223c-2.863,2.844-5.646,5.696-8.258,8.777
	c-3.664,4.324-7.715,8.24-11.742,12.223c-2.863,2.844-5.646,5.696-8.258,8.777c-3.663,4.322-7.713,8.238-11.738,12.219
	c-3.486,3.462-6.778,7.01-9.957,10.758c-2.783,3.121-5.783,6.022-8.758,8.957c-2.627,2.605-5.146,5.251-7.547,8.066
	c-3.282,3.851-6.853,7.381-10.451,10.932c-3.249,3.222-6.273,6.562-9.24,10.041c-2.982,3.344-6.212,6.438-9.398,9.586
	c-2.679,2.713-5.156,5.549-7.633,8.445c-2.727,3.062-5.669,5.896-8.586,8.773c-2.612,2.649-5.024,5.435-7.445,8.258
	c-2.473,2.781-5.131,5.358-7.781,7.969c-1.887,1.917-3.652,3.892-5.402,5.934c-3.273,3.811-6.796,7.313-10.371,10.84
	c-2.612,2.649-5.024,5.435-7.445,8.258c-2.471,2.78-5.128,5.355-7.777,7.965c-1.908,1.939-3.695,3.938-5.469,6
	c-3.018,3.512-6.233,6.753-9.531,10c-1.908,1.939-3.695,3.938-5.469,6c-2.396,2.789-4.88,5.42-7.5,8
	c-2.6,2.56-5.063,5.168-7.438,7.938c-2.569,2.99-5.256,5.794-8.063,8.563c-2.786,2.748-5.453,5.528-8,8.5s-5.214,5.752-8,8.5
	c-2.766,2.729-5.413,5.485-7.938,8.438c-2.719,3.173-5.59,6.126-8.563,9.063c-2.91,2.875-5.725,5.759-8.375,8.875
	c-3.039,3.558-6.299,6.84-9.625,10.125c-3.243,3.203-6.43,6.391-9.375,9.875c-3.332,3.924-6.969,7.507-10.625,11.125
	c-5.415,5.345-5.415,5.345-10.5,11c-3.811,4.511-8.047,8.599-12.264,12.727c-3.019,2.975-5.907,5.999-8.674,9.211
	c-4.275,4.952-8.934,9.484-13.602,14.063c-3.268,3.229-6.433,6.485-9.43,9.969c-4.457,5.174-9.346,9.894-14.215,14.676
	c-3.396,3.358-6.701,6.734-9.816,10.355c-4.444,5.166-9.325,9.873-14.184,14.645c-3.396,3.358-6.701,6.734-9.816,10.355
	c-4.444,5.166-9.325,9.873-14.184,14.645c-4.035,3.991-7.855,8.072-11.557,12.373c-3.724,4.195-7.797,8.057-11.799,11.982
	c-3.277,3.24-6.452,6.507-9.461,10c-4.25,4.935-8.893,9.442-13.539,14c-3.921,3.875-7.617,7.855-11.215,12.031
	c-2.933,3.307-6.092,6.376-9.246,9.469c-4.411,4.363-8.697,8.734-12.699,13.48c-2.98,3.343-6.205,6.443-9.391,9.59
	c-3.422,3.396-6.644,6.897-9.77,10.57c-2.355,2.67-4.893,5.138-7.453,7.609c-1.895,1.948-3.677,3.938-5.457,5.988
	c-3.697,4.256-7.538,8.36-11.418,12.449c-4.88,5.164-9.749,10.336-14.563,15.563c-0.481,0.522-0.963,1.045-1.459,1.584
	c-1.431,1.555-2.861,3.11-4.291,4.666c-7.666,8.334-15.376,16.623-23.129,24.875c-2.598,2.765-5.188,5.536-7.773,8.313
	c-6.393,6.857-12.819,13.645-19.535,20.188c-1.98,2.028-3.818,4.068-5.656,6.219c-5.31,6.125-11.17,11.727-16.936,17.416
	c-1.503,1.484-3.002,2.972-4.502,4.459c-0.883,0.871-1.765,1.741-2.674,2.639c-2.154,2.179-4.17,4.451-6.172,6.77
	c-3.518,4.057-7.24,7.853-11.061,11.623c-0.684,0.68-1.367,1.359-2.072,2.061c-2.888,2.872-5.781,5.737-8.675,8.604
	c-2.128,2.109-4.253,4.223-6.378,6.336c-0.642,0.634-1.283,1.268-1.945,1.92c-3.783,3.763-7.342,7.653-10.828,11.691
	c-2.411,2.737-4.971,5.302-7.57,7.857c-0.528,0.524-1.057,1.049-1.602,1.59c-2.219,2.203-4.443,4.399-6.668,6.596
	c-5.571,5.511-11.087,11.004-16.174,16.973c-3.873,4.396-8.156,8.415-12.334,12.518c-4.045,4.001-7.878,8.092-11.588,12.404
	c-2.925,3.302-6.08,6.364-9.229,9.451c-5.676,5.584-5.676,5.584-11,11.5c-4.037,4.795-8.58,9.104-13.029,13.51
	c-3.681,3.658-7.192,7.367-10.537,11.338c-3.443,3.833-7.162,7.398-10.822,11.021c-2.96,2.941-5.858,5.875-8.549,9.068
	c-4.063,4.812-8.621,9.145-13.092,13.572c-3.681,3.658-7.192,7.367-10.537,11.338c-3.441,3.831-7.158,7.396-10.818,11.018
	c-3.572,3.55-6.961,7.166-10.213,11.014c-3.229,3.6-6.71,6.947-10.146,10.346c-2.843,2.823-5.605,5.651-8.193,8.713
	c-3.877,4.576-8.188,8.713-12.447,12.928c-3.572,3.549-6.961,7.166-10.213,11.014c-3.227,3.598-6.707,6.945-10.143,10.342
	c-3.464,3.439-6.73,6.965-9.889,10.689c-3.014,3.365-6.258,6.497-9.471,9.67c-2.725,2.704-5.354,5.428-7.838,8.357
	c-3.688,4.341-7.755,8.281-11.803,12.283c-3.463,3.439-6.73,6.965-9.889,10.689c-3.013,3.365-6.257,6.495-9.469,9.668
	c-2.746,2.725-5.395,5.473-7.902,8.422c-3.475,4.088-7.279,7.807-11.094,11.574c-3.377,3.352-6.549,6.808-9.633,10.434
	c-2.968,3.334-6.189,6.415-9.363,9.551c-2.679,2.713-5.156,5.549-7.633,8.445c-2.726,3.062-5.669,5.896-8.586,8.773
	c-2.612,2.649-5.024,5.435-7.445,8.258c-2.47,2.779-5.125,5.354-7.773,7.961c-2.546,2.586-4.893,5.319-7.258,8.07
	c-2.215,2.498-4.584,4.814-6.965,7.152c-1.832,1.865-3.543,3.801-5.25,5.781c-2.782,3.229-5.71,6.233-8.75,9.219
	c-1.832,1.865-3.543,3.801-5.25,5.781c-2.782,3.229-5.71,6.233-8.75,9.219c-1.832,1.865-3.543,3.801-5.25,5.781
	c-2.782,3.229-5.71,6.233-8.75,9.219c-1.832,1.865-3.543,3.801-5.25,5.781c-2.246,2.606-4.545,5.09-7,7.5
	c-2.413,2.371-4.673,4.807-6.875,7.375c-2.592,3.01-5.298,5.836-8.125,8.625c-2.766,2.729-5.413,5.485-7.938,8.438
	c-2.719,3.173-5.59,6.126-8.563,9.063c-2.89,2.855-5.685,5.715-8.313,8.813c-3.697,4.329-7.736,8.293-11.806,12.27
	c-2.839,2.793-5.542,5.641-8.136,8.664c-4.48,5.183-9.331,9.984-14.184,14.816c-0.903,0.906-1.806,1.813-2.736,2.748
	c-4.571,4.564-9.201,8.979-14.104,13.186c-2.357,2.059-4.541,4.263-6.723,6.504c-3.512,3.549-7.09,6.92-10.883,10.164
	c-2.523,2.188-4.973,4.449-7.43,6.711c-4.467,4.074-9.057,7.934-13.762,11.727c-2.648,2.171-5.237,4.391-7.817,6.641
	c-7.706,6.705-15.708,12.939-23.876,19.07c-2.18,1.648-4.339,3.32-6.494,5c-23.024,17.797-47.76,33.787-72.738,48.688
	c-1.365,0.821-1.365,0.821-2.757,1.658c-15.743,9.451-31.834,18.105-48.243,26.342c-0.983,0.496-1.967,0.992-2.979,1.504
	c-25.385,12.74-51.991,22.099-78.906,30.983c-2.819,0.934-5.636,1.878-8.452,2.821c-13.756,4.604-27.543,9.072-41.475,13.117
	c-1.041,0.307-2.081,0.613-3.153,0.929c-16.946,4.813-34.431,7.474-51.796,10.282c-2.013,0.328-4.025,0.656-6.037,0.984
	c-4.174,0.681-8.348,1.358-12.522,2.035c-5.331,0.863-10.66,1.731-15.989,2.602c-4.138,0.676-8.275,1.348-12.414,2.021
	c-1.966,0.319-3.932,0.64-5.897,0.96c-2.742,0.447-5.485,0.892-8.229,1.335c-0.796,0.13-1.593,0.261-2.413,0.396
	c-7.254,1.166-14.471,2.133-21.827,2.208c-1.676,0.019-1.676,0.019-3.385,0.038c-1.188,0.008-2.378,0.016-3.603,0.023
	c-1.264,0.01-2.527,0.02-3.829,0.029c-4.114,0.025-8.229,0.039-12.343,0.045c-0.703,0.001-1.406,0.002-2.13,0.004
	c-36.293,0.041-71.636-3.096-107.413-9.141c-8.585-1.434-17.203-2.611-25.824-3.802c-42.235-5.858-83.77-14.204-124.383-27.374
	c-0.952-0.309-0.952-0.309-1.924-0.623c-65.691-21.311-128.243-51.78-186.451-88.814c-1.004-0.639-2.008-1.276-3.042-1.934
	c-6.71-4.311-13.164-8.9-19.583-13.629c-1.224-0.876-2.45-1.749-3.68-2.617c-7.357-5.199-14.569-10.547-21.668-16.094
	c-1.691-1.32-3.389-2.631-5.086-3.941c-6.664-5.166-13.158-10.488-19.529-16.012c-3.437-2.979-6.921-5.872-10.475-8.711
	c-5.256-4.261-10.178-8.838-15.086-13.49c-3.759-3.559-7.594-7.006-11.501-10.402c-3.153-2.766-6.227-5.615-9.288-8.482
	c-0.672-0.629-1.345-1.258-2.037-1.906c-6.476-6.104-12.76-12.393-19.003-18.733c-3.362-3.399-6.722-6.731-10.362-9.833
	c-5.627-4.839-10.805-10.147-16.04-15.402c-1.804-1.809-3.613-3.612-5.423-5.416c-1.172-1.172-2.343-2.345-3.514-3.518
	c-0.529-0.527-1.059-1.055-1.604-1.598c-2.706-2.725-5.292-5.504-7.785-8.425c-4.374-5.015-9.058-9.697-13.767-14.396
	c-0.973-0.975-1.946-1.95-2.92-2.926c-2.621-2.626-5.246-5.249-7.871-7.871c-2.761-2.758-5.519-5.519-8.277-8.278
	c-4.631-4.632-9.264-9.263-13.897-13.892c-5.341-5.336-10.678-10.675-16.013-16.016c-4.6-4.604-9.2-9.205-13.803-13.805
	c-2.74-2.739-5.481-5.479-8.22-8.221c-2.576-2.579-5.154-5.155-7.734-7.73c-1.386-1.384-2.77-2.771-4.153-4.157
	c-4.381-4.366-8.827-8.574-13.517-12.606c-2.383-2.075-4.616-4.278-6.843-6.52c-1.372-1.377-1.372-1.377-2.771-2.781
	c-0.475-0.479-0.949-0.958-1.438-1.451c-1.513-1.525-3.028-3.048-4.545-4.569c-3.764-3.776-7.521-7.559-11.279-11.34
	c-3.188-3.208-6.378-6.413-9.57-9.616c-1.479-1.486-2.956-2.976-4.433-4.465c-4.489-4.506-9.025-8.85-13.853-12.989
	c-4.153-3.69-8.013-7.688-11.921-11.634c-1.412-1.418-2.824-2.836-4.237-4.254c-2.949-2.963-5.895-5.93-8.841-8.896
	c-2.435-2.451-4.87-4.902-7.309-7.35c-1.819-1.827-3.636-3.655-5.45-5.486c-4.279-4.297-8.626-8.411-13.225-12.362
	c-4.081-3.63-7.878-7.554-11.72-11.433c-0.902-0.906-1.804-1.812-2.733-2.744c-3.345-3.36-6.687-6.725-10.026-10.089
	c-3.285-3.309-6.575-6.613-9.865-9.917c-0.853-0.86-1.705-1.721-2.583-2.607c-4.239-4.257-8.55-8.328-13.104-12.243
	c-3.843-3.41-7.419-7.093-11.031-10.743c-0.835-0.839-1.671-1.678-2.531-2.543c-3.541-3.557-7.075-7.119-10.611-10.682
	c-2.596-2.615-5.195-5.227-7.795-7.838c-1.18-1.192-1.18-1.192-2.384-2.409c-4.083-4.101-8.254-8.001-12.639-11.775
	c-3.768-3.347-7.278-6.953-10.821-10.534c-0.813-0.816-1.626-1.634-2.464-2.476c-3.445-3.462-6.885-6.929-10.324-10.396
	c-2.526-2.545-5.057-5.087-7.587-7.629c-0.765-0.773-1.529-1.546-2.317-2.343c-4.034-4.052-8.16-7.898-12.491-11.629
	c-3.69-3.275-7.129-6.803-10.598-10.31c-0.791-0.795-1.582-1.59-2.396-2.408c-3.35-3.366-6.693-6.737-10.037-10.109
	c-2.458-2.475-4.918-4.947-7.379-7.42c-0.743-0.751-1.486-1.502-2.251-2.276c-3.356-3.372-6.738-6.649-10.343-9.755
	c-4.413-3.803-8.499-7.891-12.594-12.031c-0.791-0.795-1.582-1.59-2.396-2.408c-3.35-3.366-6.693-6.737-10.037-10.109
	c-2.458-2.475-4.918-4.947-7.379-7.42c-0.743-0.751-1.486-1.502-2.251-2.276c-4.069-4.088-8.227-7.997-12.611-11.746
	c-2.544-2.217-4.874-4.594-7.231-7.009c-3.654-3.703-7.384-7.246-11.34-10.625c-2.77-2.404-5.464-4.889-8.16-7.375
	c-3.375-3.111-6.77-6.193-10.25-9.188c-3.335-2.887-6.437-5.952-9.5-9.125c-1.938-1.885-3.918-3.646-5.965-5.41
	c-4.474-3.887-8.67-8.014-12.848-12.215c-0.716-0.712-1.432-1.424-2.17-2.158c-0.708-0.71-1.417-1.419-2.146-2.15
	c-0.625-0.626-1.249-1.252-1.893-1.896c-1.873-1.981-3.656-4-5.435-6.066c-3.431-3.927-7.018-7.645-10.72-11.314
	c-0.653-0.651-1.306-1.303-1.979-1.975c-1.404-1.4-2.809-2.799-4.215-4.196c-2.231-2.219-4.46-4.44-6.687-6.663
	c-4.729-4.717-9.461-9.43-14.194-14.143c-5.489-5.466-10.977-10.933-16.46-16.404c-2.185-2.178-4.371-4.353-6.559-6.527
	c-1.353-1.348-2.704-2.696-4.056-4.045c-0.6-0.595-1.199-1.189-1.817-1.802c-3.647-3.646-7.072-7.431-10.445-11.331
	c-2.335-2.654-4.789-5.144-7.288-7.645c-0.515-0.517-1.029-1.033-1.56-1.565c-1.675-1.679-3.353-3.354-5.03-5.028
	c-1.182-1.183-2.363-2.365-3.545-3.547c-2.465-2.467-4.932-4.932-7.4-7.396c-3.145-3.14-6.284-6.282-9.424-9.427
	c-2.436-2.439-4.873-4.877-7.312-7.313c-1.158-1.158-2.315-2.315-3.472-3.475c-5.501-5.51-11.007-10.951-16.928-16.014
	c-2.614-2.272-5.021-4.705-7.455-7.17c-0.502-0.506-1.005-1.013-1.522-1.534c-2.107-2.123-4.208-4.252-6.31-6.381
	c-5.342-5.404-10.68-10.73-16.465-15.667c-4.866-4.312-9.328-9.072-13.887-13.703c-0.795-0.803-1.591-1.606-2.41-2.434
	c-0.703-0.715-1.406-1.43-2.131-2.166c-2.031-1.952-4.09-3.792-6.225-5.627c-4.814-4.183-9.284-8.677-13.77-13.207
	c-0.88-0.884-1.76-1.768-2.666-2.678c-3.262-3.275-6.52-6.557-9.776-9.838c-3.204-3.227-6.411-6.449-9.62-9.672
	c-0.83-0.839-1.661-1.678-2.517-2.542c-0.794-0.798-1.589-1.595-2.407-2.417c-0.687-0.691-1.373-1.383-2.08-2.096
	c-1.985-1.895-4-3.683-6.08-5.467c-4.521-3.948-8.767-8.133-13-12.386c-0.83-0.83-1.66-1.66-2.516-2.516
	c-2.282-2.283-4.563-4.569-6.843-6.855c-2.467-2.474-4.938-4.944-7.407-7.415c-4.273-4.276-8.545-8.555-12.815-12.834
	c-6.183-6.195-12.368-12.387-18.555-18.578c-10.05-10.057-20.098-20.115-30.144-30.176c-0.601-0.601-1.201-1.202-1.82-1.821
	c-4.871-4.879-9.743-9.757-14.614-14.636c-4.259-4.265-8.518-8.529-12.776-12.793c-0.6-0.602-1.199-1.201-1.816-1.82
	c-10.011-10.024-20.023-20.047-30.037-30.067c-6.169-6.173-12.336-12.349-18.501-18.525c-4.226-4.234-8.452-8.466-12.681-12.696
	c-2.437-2.438-4.873-4.877-7.307-7.318c-2.644-2.65-5.29-5.299-7.938-7.946c-0.762-0.765-1.522-1.529-2.307-2.317
	c-4.046-4.037-8.176-7.906-12.521-11.621c-3.076-2.688-5.937-5.588-8.812-8.488c-0.651-0.653-1.303-1.307-1.975-1.979
	c-1.4-1.404-2.799-2.809-4.196-4.215c-2.219-2.231-4.44-4.459-6.663-6.687c-5.516-5.53-11.026-11.064-16.537-16.6
	c-4.668-4.688-9.337-9.372-14.01-14.055c-2.178-2.185-4.353-4.372-6.527-6.559c-1.348-1.353-2.696-2.704-4.045-4.056
	c-0.595-0.6-1.189-1.199-1.802-1.817c-3.642-3.642-7.421-7.06-11.315-10.428c-2.751-2.425-5.341-4.99-7.92-7.597
	c-0.816-0.818-0.816-0.818-1.649-1.654c-1.166-1.169-2.331-2.34-3.494-3.512c-1.849-1.861-3.701-3.721-5.554-5.578
	c-4.598-4.611-9.19-9.228-13.783-13.844c-3.893-3.912-7.787-7.822-11.684-11.73c-1.813-1.818-3.621-3.64-5.431-5.461
	c-5.022-5.045-10.062-9.996-15.48-14.618c-3.975-3.507-7.652-7.328-11.38-11.093c-1.319-1.325-1.319-1.325-2.666-2.678
	c-3.262-3.275-6.52-6.557-9.776-9.838c-3.204-3.227-6.411-6.449-9.62-9.672c-0.83-0.839-1.661-1.678-2.517-2.542
	c-4.182-4.198-8.439-8.205-12.932-12.068c-3.925-3.487-7.578-7.253-11.271-10.983c-0.857-0.861-1.715-1.723-2.599-2.61
	c-3.637-3.652-7.267-7.311-10.897-10.969c-2.666-2.685-5.335-5.365-8.004-8.046c-0.809-0.816-1.617-1.634-2.45-2.476
	c-3.427-3.441-6.856-6.814-10.554-9.966c-5.477-4.714-10.501-9.891-15.589-15.014c-1.882-1.895-3.768-3.787-5.654-5.678
	c-4.682-4.695-9.357-9.396-14.033-14.096c-3.963-3.982-7.928-7.963-11.896-11.941c-1.846-1.852-3.688-3.706-5.53-5.561
	c-5.119-5.142-10.236-10.19-15.762-14.899c-3.249-2.839-6.252-5.926-9.282-8.995c-0.68-0.684-1.36-1.367-2.061-2.072
	c-2.872-2.888-5.737-5.781-8.604-8.675c-2.109-2.128-4.223-4.253-6.336-6.378c-0.634-0.642-1.268-1.283-1.92-1.945
	c-2.989-3.005-6.012-5.9-9.236-8.652c-6.08-5.254-11.675-11.027-17.348-16.711c-1.25-1.249-2.499-2.498-3.749-3.746
	c-2.608-2.606-5.214-5.215-7.819-7.824c-3.32-3.326-6.646-6.648-9.972-9.969c-2.578-2.574-5.154-5.151-7.729-7.729
	c-1.224-1.226-2.449-2.449-3.675-3.674c-11.55-11.532-11.55-11.532-16.717-17.633c-1.986-2.313-4.151-4.428-6.335-6.555
	c-3.484-3.447-6.782-6.959-9.965-10.684c-2.184-2.485-4.435-4.895-6.698-7.307c-5.263-5.604-10.287-11.293-15.095-17.299
	c-2.481-3-5.091-5.862-7.742-8.711c-4.256-4.579-8.273-9.293-12.195-14.164c-2.513-3.092-5.092-6.12-7.68-9.148
	c-5.266-6.185-10.289-12.54-15.272-18.952c-1.302-1.67-2.613-3.333-3.927-4.993c-12.339-15.59-24.329-31.431-35.889-47.606
	c-1.471-2.044-2.961-4.072-4.459-6.097c-9.841-13.349-18.942-27.193-28.091-41.021c-2.205-3.332-4.414-6.661-6.638-9.981
	c-4.932-7.364-9.788-14.763-14.475-22.287c-0.63-1.01-1.26-2.021-1.908-3.062C184.199,2491.44,166.569,2460.502,150,2429
	c-0.309-0.585-0.617-1.17-0.935-1.773c-4.762-9.037-9.455-18.109-14.065-27.227c-0.3-0.593-0.6-1.186-0.909-1.797
	C109.667,2349.799,89.902,2299.131,72,2248c-0.434-1.238-0.434-1.238-0.877-2.502c-7.763-22.175-15.163-44.453-22.186-66.873
	c-0.462-1.469-0.462-1.469-0.933-2.968c-11.607-37.024-11.607-37.024-14.567-55.22c-0.199-1.157-0.398-2.314-0.604-3.506
	c-1.051-6.124-2.049-12.256-3.045-18.389c-2.435-14.832-5.53-29.134-9.789-43.543c-0.931-3.18-1.855-6.361-2.768-9.546
	c-0.584-2.037-1.178-4.072-1.784-6.104c-4.882-16.952-6.461-34.692-8.448-52.163c-0.13-1.135-0.26-2.27-0.394-3.438
	c-1.673-14.649-3.227-29.302-4.418-43.999c-0.086-1.038-0.086-1.038-0.173-2.097c-1.995-24.542-2.178-49.086-2.182-73.691
	c-0.001-2.713-0.003-5.426-0.006-8.139c-0.009-9.614-0.013-19.229-0.013-28.843c0.001-7.756-0.006-15.513-0.021-23.27
	c-0.072-40.779,0.053-81.545,0.972-122.315c0.058-2.602,0.111-5.203,0.164-7.806c0.584-28.295,2.319-56.255,7.383-84.152
	c0.312-1.758,0.624-3.516,0.935-5.274c0.764-4.287,1.545-8.571,2.332-12.854c0.386-2.116,0.763-4.232,1.135-6.351
	c2.991-16.91,7.227-33.257,11.891-49.764c4.078-14.499,7.327-29.016,10.083-43.82C43.316,1425.261,58.152,1381.081,74,1337
	c0.527-1.47,0.527-1.47,1.065-2.969c12.61-35.114,26.068-69.393,42.036-103.131c1.61-3.406,3.213-6.815,4.816-10.225
	c2.041-4.338,4.082-8.676,6.127-13.012c3.764-7.982,7.497-15.979,11.193-23.994c8.731-18.916,17.999-37.413,28.087-55.643
	c1.79-3.236,3.57-6.478,5.35-9.719c7.496-13.614,15.182-27.071,23.324-40.309c0.535-0.875,1.069-1.75,1.62-2.652
	c30.518-49.89,64.918-97.264,101.903-142.539c1.307-1.601,2.611-3.205,3.914-4.809c5.29-6.499,10.676-12.912,16.107-19.291
	c0.98-1.151,1.959-2.304,2.938-3.457c6.216-7.332,12.541-14.531,19.068-21.588c2.018-2.195,3.997-4.411,5.949-6.664
	c4.235-4.879,8.621-9.62,13-14.371c1.534-1.666,3.064-3.337,4.594-5.008c4.938-5.387,9.918-10.687,15.129-15.813
	c1.762-1.792,3.396-3.646,5.027-5.559c3.609-4.209,7.522-8.08,11.487-11.95c2.994-2.943,5.71-5.967,8.263-9.3
	c8.752,3.908,15.872,11.636,22.418,18.445c1.998,1.977,4,3.789,6.133,5.609c4.961,4.326,9.587,8.958,14.227,13.625
	c0.953,0.955,1.907,1.91,2.861,2.865c2.039,2.042,4.076,4.086,6.111,6.131c3.227,3.239,6.457,6.476,9.688,9.711
	c7.439,7.451,14.873,14.907,22.307,22.363c6.819,6.839,13.64,13.677,20.463,20.511c3.205,3.21,6.407,6.422,9.607,9.636
	c1.998,2.006,3.999,4.01,6,6.013c1.354,1.357,2.707,2.718,4.06,4.078c4.352,4.352,8.772,8.541,13.439,12.552
	c1.975,1.711,3.842,3.502,5.681,5.357c0.674,0.678,1.349,1.355,2.043,2.054c0.699,0.707,1.398,1.415,2.119,2.144
	c0.746,0.75,1.493,1.501,2.263,2.273c3.158,3.175,6.311,6.355,9.464,9.535c2.318,2.337,4.64,4.671,6.961,7.004
	c0.699,0.707,1.398,1.415,2.119,2.144c3.894,3.914,7.897,7.61,12.078,11.216c3.294,2.916,6.369,6.042,9.459,9.172
	c0.68,0.684,1.36,1.367,2.061,2.072c2.872,2.888,5.737,5.781,8.604,8.675c2.109,2.128,4.223,4.253,6.336,6.378
	c0.634,0.642,1.268,1.284,1.92,1.945c3.093,3.108,6.232,6.1,9.553,8.965c4.186,3.614,8.08,7.47,11.965,11.402
	c0.725,0.729,1.449,1.456,2.195,2.207c3.063,3.078,6.119,6.164,9.177,9.248c2.249,2.268,4.501,4.531,6.753,6.795
	c0.678,0.686,1.354,1.371,2.053,2.078c3.136,3.151,6.302,6.199,9.68,9.092c4.862,4.196,9.361,8.749,13.881,13.306
	c1.58,1.593,3.163,3.183,4.747,4.771c3.93,3.943,7.854,7.892,11.779,11.841c3.329,3.349,6.66,6.695,9.993,10.039
	c1.547,1.553,3.09,3.107,4.633,4.664c4.597,4.62,9.248,9.096,14.199,13.336c3.989,3.535,7.693,7.368,11.441,11.154
	c0.88,0.884,1.76,1.768,2.666,2.678c3.262,3.275,6.52,6.557,9.776,9.837c3.204,3.228,6.411,6.45,9.62,9.673
	c0.83,0.839,1.661,1.678,2.517,2.542c4.221,4.237,8.518,8.29,13.053,12.189c3.201,2.823,6.184,5.856,9.181,8.894
	c0.658,0.662,1.315,1.323,1.993,2.005c2.776,2.792,5.546,5.591,8.317,8.388c2.04,2.059,4.083,4.114,6.127,6.17
	c0.611,0.62,1.224,1.24,1.854,1.879c3.696,3.717,7.525,7.202,11.491,10.628c2.98,2.635,5.771,5.441,8.562,8.274
	c0.591,0.595,1.183,1.189,1.791,1.803c2.49,2.506,4.973,5.018,7.457,7.528c8.781,8.893,8.781,8.893,18.057,17.259
	c5.664,5.055,10.891,10.623,16.225,16.023c7.222,7.375,7.222,7.375,14.846,14.324c6.427,5.478,12.225,11.672,18.154,17.676
	c5.449,5.51,10.883,10.956,16.785,15.986c5.262,4.693,10.119,9.85,15.07,14.867c5.207,5.272,10.425,10.445,16.064,15.263
	c3.764,3.337,7.221,6.99,10.738,10.583c5.558,5.62,11.077,10.967,17.333,15.805c3.357,2.729,6.516,5.628,9.679,8.578
	c0.597,0.554,1.193,1.107,1.808,1.678c1.458,1.354,2.913,2.709,4.368,4.064c-0.009-0.863-0.018-1.727-0.027-2.616
	c-0.794-80.979-0.794-80.979,3.688-111.095c0.353-2.378,0.688-4.758,1.022-7.139c4.521-32.043,10.321-63.916,15.844-95.799
	c1.527-8.82,3.032-17.644,4.484-26.477c14.164-85.955,38.667-170.13,146.48-412.172c1.676-3.005,3.325-6.023,4.973-9.043
	c8.445-15.427,17.38-30.484,26.584-45.466c2.33-3.814,4.617-7.653,6.898-11.497c5.035-8.479,10.288-16.756,15.84-24.907
	c1.653-2.439,3.279-4.896,4.907-7.353c9.245-13.941,18.815-27.625,28.653-41.155c1.634-2.257,3.256-4.521,4.875-6.79
	c7.142-9.992,14.532-19.753,22.131-29.4c1.558-1.979,3.109-3.962,4.658-5.947c4.868-6.231,9.793-12.408,14.82-18.512
	c1.441-1.75,2.876-3.505,4.305-5.266c5.65-6.959,11.459-13.771,17.311-20.561c1.539-1.791,3.07-3.589,4.6-5.389
	c5.708-6.711,11.525-13.29,17.508-19.758c1.997-2.172,3.953-4.365,5.883-6.598c3.934-4.528,8.005-8.928,12.088-13.32
	c2.211-2.379,4.417-4.763,6.619-7.15c10.053-10.849,20.449-21.341,30.919-31.786c2.416-2.41,4.827-4.824,7.237-7.24
	c2.344-2.349,4.691-4.693,7.039-7.038c0.853-0.854,1.704-1.709,2.582-2.589c4.314-4.297,8.688-8.453,13.326-12.4
	c1.832-1.608,3.545-3.297,5.252-5.038c2.964-3.011,6.067-5.792,9.266-8.551c2.613-2.279,5.174-4.611,7.734-6.949
	c16.681-15.198,33.993-29.766,51.5-44c1.215-0.997,2.43-1.995,3.645-2.992c8.215-6.733,16.552-13.273,25.012-19.695
	c3.685-2.8,7.334-5.641,10.977-8.495c9.976-7.811,20.126-15.361,30.367-22.818c0.79-0.577,1.58-1.154,2.395-1.749
	c8.494-6.201,17.017-12.315,25.82-18.074c2.146-1.415,4.28-2.849,6.414-4.283c36.451-24.479,74.007-47.089,112.699-67.84
	c3.589-1.925,7.162-3.875,10.719-5.859c27.399-15.257,55.685-28.87,84.34-41.587c3.221-1.433,6.433-2.885,9.641-4.346
	c32.604-14.74,66.161-27.581,99.973-39.262c0.795-0.275,1.589-0.55,2.408-0.833C1978.281,63.857,2035.214,47.515,2093,35
	c1.092-0.237,1.092-0.237,2.205-0.479c83.297-18.009,168.737-23.934,253.476-31.288c1.795-0.156,3.59-0.312,5.385-0.468
	c5.083-0.442,10.166-0.881,15.25-1.316c1.535-0.131,3.07-0.264,4.605-0.397c2.099-0.182,4.196-0.36,6.296-0.537
	c1.172-0.1,2.344-0.2,3.552-0.304C2386.84,0.011,2389.922,0,2393,0z"/>
</svg>
